<?xml version="1.0" encoding="UTF-8" standalone="no"?>
<!-- Generator: Adobe Illustrator 12.0.1, SVG Export Plug-In . SVG Version: 6.00 Build 51448)  -->
<svg
   xmlns:ns="http://creativecommons.org/ns#"
   xmlns:dc="http://purl.org/dc/elements/1.1/"
   xmlns:cc="http://web.resource.org/cc/"
   xmlns:rdf="http://www.w3.org/1999/02/22-rdf-syntax-ns#"
   xmlns:svg="http://www.w3.org/2000/svg"
   xmlns="http://www.w3.org/2000/svg"
   xmlns:sodipodi="http://sodipodi.sourceforge.net/DTD/sodipodi-0.dtd"
   xmlns:inkscape="http://www.inkscape.org/namespaces/inkscape"
   enable-background="new 0 0 50.878 48.833"
   height="48.833"
   id="Icon"
   inkscape:version="0.45pre1"
   overflow="visible"
   sodipodi:docname="Juego.svg"
   version="1.1"
   viewBox="0 0 50.878 48.833"
   width="50.878"
   xml:space="preserve"
   sodipodi:version="0.32"
   inkscape:output_extension="org.inkscape.output.svg.inkscape"
   sodipodi:docbase="C:\Users\Gerard\Downloads\Juego.activity(2)\Juego.activity\activity"
   sodipodi:modified="true"><metadata
   id="metadata17"><rdf:RDF><ns:Work
       rdf:about=""><dc:format>image/svg+xml</dc:format><dc:type
         rdf:resource="http://purl.org/dc/dcmitype/StillImage" /><dc:title /></ns:Work><cc:Work
       rdf:about=""><dc:format>image/svg+xml</dc:format><dc:type
         rdf:resource="http://purl.org/dc/dcmitype/StillImage" /></cc:Work></rdf:RDF></metadata><defs
   id="defs15"><inkscape:perspective
   id="perspective19"
   inkscape:persp3d-origin="25.438999 : 16.277667 : 1"
   inkscape:vp_x="0 : 24.4165 : 1"
   inkscape:vp_y="0 : 1000 : 0"
   inkscape:vp_z="50.877998 : 24.4165 : 1"
   sodipodi:type="inkscape:persp3d" /><inkscape:perspective
   id="perspective2841"
   inkscape:persp3d-origin="0.5 : 0.33333333 : 1"
   inkscape:vp_x="0 : 0.5 : 1"
   inkscape:vp_y="0 : 1000 : 0"
   inkscape:vp_z="1 : 0.5 : 1"
   sodipodi:type="inkscape:persp3d" /><inkscape:perspective
   id="perspective2993"
   inkscape:persp3d-origin="0.5 : 0.33333333 : 1"
   inkscape:vp_x="0 : 0.5 : 1"
   inkscape:vp_y="0 : 1000 : 0"
   inkscape:vp_z="1 : 0.5 : 1"
   sodipodi:type="inkscape:persp3d" />
  
  
  
  
  
  
  
  
  
  
  
  
  
  
  
  
  
 <metadata
   id="CorelCorpID_0Corel-Layer" />
 
  <style
   id="style6"
   type="text/css">
   
    .fil3 {fill:#1F1A17}
    .fil1 {fill:white}
    .fil0 {fill:#0093DD;fill-rule:nonzero}
    .fil2 {fill:#1F1A17;fill-rule:nonzero}
   
  </style>
  </defs><sodipodi:namedview
   bordercolor="#666666"
   borderopacity="1"
   gridtolerance="10"
   guidetolerance="10"
   id="namedview13"
   inkscape:current-layer="Icon"
   inkscape:cx="-27.381568"
   inkscape:cy="35.606862"
   inkscape:pageopacity="0"
   inkscape:pageshadow="2"
   inkscape:window-height="690"
   inkscape:window-maximized="1"
   inkscape:window-width="1366"
   inkscape:window-x="380"
   inkscape:window-y="94"
   inkscape:zoom="4.8327975"
   objecttolerance="10"
   pagecolor="#ffffff"
   showgrid="false" />









<g
   id="g3304"
   transform="matrix(1.2960614,0,0,1.2960614,-1.0451597,-0.7974116)"><path
     class="fil0"
     d="M 2.831307,36.871234 L 14.865888,1.9944921 L 26.778895,1.9944921 L 38.830044,36.871234 C 24.444392,36.871234 17.253341,36.871234 2.831307,36.871234 z "
     id="path26"
     style="fill:#000000;fill-opacity:1;fill-rule:nonzero" /><path
     class="fil1"
     d="M 27.466053,36.939864 L 22.871591,36.939864 C 22.875142,36.800538 22.881349,36.660918 22.891704,36.588151 C 22.917735,36.408893 22.86597,35.844491 22.609212,35.562292 C 22.35304,35.280684 21.814377,34.587314 21.35292,34.022917 C 20.890872,33.458813 20.45426,32.84265 20.377351,32.612217 C 20.299852,32.38149 19.197675,30.611087 19.197675,30.611087 C 19.197675,30.611087 18.992092,30.815786 18.556071,31.124607 C 18.119464,31.431949 17.40154,32.175903 17.222281,32.406336 C 17.042431,32.637657 17.016992,33.509987 16.786263,33.817925 C 16.554351,34.125267 16.605821,34.562171 16.581269,34.819227 C 16.554351,35.074803 16.760232,35.690673 16.811702,35.921995 C 16.863173,36.152428 17.504481,36.716528 17.69853,36.939864 L 14.771822,36.939864 C 14.419517,36.714755 13.402535,36.146216 13.425312,35.819939 C 13.450751,35.433915 13.680888,34.895843 13.783829,34.664223 C 13.886769,34.43379 14.194704,34.100124 14.194704,34.100124 L 14.322492,33.612635 C 14.322492,33.612635 14.399993,32.996765 14.707928,32.253109 C 15.015567,31.509453 16.349653,29.867133 16.477737,29.559494 C 16.605821,29.251268 17.298895,27.455721 17.350661,27.301606 C 17.40154,27.147198 17.504481,26.76265 17.094197,26.069871 C 16.683322,25.377092 16.605821,24.710345 16.632148,24.299765 C 16.658179,23.889185 16.811702,23.119498 17.119045,22.478187 C 17.426387,21.836881 17.453306,19.783687 17.453306,19.451501 C 17.453306,19.116647 17.298895,19.168413 17.298895,19.168413 L 16.401123,19.322528 C 16.401123,19.322528 16.144955,18.73269 15.913338,18.73269 C 15.682018,18.73269 15.477616,18.809306 14.990127,18.963421 C 14.502638,19.116647 13.296932,19.655902 12.809147,19.9381 C 12.321954,20.220597 11.757556,20.707788 11.654911,20.80984 C 11.55197,20.913376 11.346681,21.272483 11.039338,21.374833 C 10.730516,21.477773 10.115831,21.168952 9.987155,21.092336 C 9.858775,21.015721 9.935389,20.272065 10.063769,19.964723 C 10.192149,19.655902 11.526531,19.347671 11.654911,19.296794 C 11.782995,19.245024 13.194287,18.373583 14.091763,17.911535 C 14.990127,17.450371 16.22216,16.499945 16.734497,16.115099 C 17.247425,15.730551 18.299313,14.960571 18.68475,14.781903 C 19.069298,14.601756 20.76249,14.755574 20.76249,14.755574 C 20.76249,14.755574 20.941456,14.576906 20.608673,14.473375 C 20.275002,14.371025 19.992505,14.011327 19.992505,13.857212 C 19.992505,13.703985 20.095743,13.242231 20.120886,13.139588 C 20.14662,13.036941 20.120886,12.574893 20.120886,12.574893 C 20.120886,12.574893 19.992505,12.113436 20.044276,11.882114 C 20.095743,11.651681 20.403383,10.95979 20.582343,10.701846 C 20.76249,10.445678 21.044396,10.240093 21.609087,10.035099 C 22.173191,9.8298091 22.86597,9.9833331 23.379192,10.060242 C 23.892122,10.137744 24.431376,10.804787 24.55946,11.318307 C 24.687841,11.831828 24.6624,12.472836 24.534317,13.062381 C 24.40446,13.65222 23.68713,14.525141 23.430665,14.832487 C 23.173902,15.141011 23.507574,15.166452 23.917856,15.294535 C 24.327845,15.422618 24.713282,15.678785 24.97004,15.85923 C 25.227393,16.038782 25.841486,16.551711 26.252657,17.115224 C 26.663237,17.680804 27.818064,18.142261 28.58716,18.706365 C 29.35655,19.271056 30.948286,19.809719 31.127246,19.912069 C 31.307393,20.015898 31.845168,20.322947 32.025022,20.682645 C 32.205164,21.041752 31.562969,21.400865 31.408854,21.400865 C 31.255628,21.400865 31.024897,21.324249 30.767846,21.015721 C 30.511674,20.707788 29.203323,20.092216 28.895093,19.964723 C 28.58716,19.835458 27.073221,19.347671 27.073221,19.347671 C 27.073221,19.347671 26.431915,19.759433 26.252657,19.759433 C 26.072808,19.759433 24.045348,19.476053 23.661391,19.579286 C 23.276843,19.682227 23.327133,19.964723 22.891704,20.348681 C 22.455687,20.733229 22.096575,21.606746 22.019964,21.888646 C 21.942758,22.170254 21.993933,23.119498 21.916433,23.581843 C 21.840706,24.043003 21.326888,25.351651 21.250277,26.04443 C 21.172773,26.736911 21.507035,27.301606 21.916433,28.455842 C 22.327306,29.610966 22.507155,30.584762 22.712743,31.072842 C 22.917735,31.56033 23.917856,33.407047 24.097114,33.894536 C 24.277261,34.382024 25.098421,35.382443 25.277972,35.485681 C 25.457826,35.587733 25.893549,35.690673 26.099133,35.742439 C 26.304125,35.793316 26.842197,35.921995 27.458067,35.998606 C 28.073937,36.075221 27.791739,36.203603 27.690273,36.563008 C 27.64768,36.710613 27.570175,36.832484 27.466053,36.939864 L 27.466053,36.939864 z "
     id="path28"
     style="fill:#ffffff;fill-rule:evenodd" /></g></svg>